<svg xmlns="http://www.w3.org/2000/svg" width="1368" height="472" viewBox="0 0 1368 472" version="1.1"><path d="M 92.954 68.938 C 92.225 73.861, 91.251 77.655, 90.791 77.371 C 90.330 77.086, 90.257 78.755, 90.629 81.080 C 91.164 84.425, 91.032 85.138, 89.996 84.498 C 88.982 83.871, 88.828 84.390, 89.311 86.806 C 89.673 88.616, 89.487 90.199, 88.867 90.583 C 88.278 90.946, 88.054 92.518, 88.367 94.083 C 88.679 95.647, 88.455 97.219, 87.867 97.583 C 87.273 97.949, 87.054 99.522, 87.374 101.121 C 87.699 102.743, 87.517 104, 86.959 104 C 86.414 104, 85.969 105.237, 85.970 106.750 C 85.971 108.263, 85.724 111.300, 85.420 113.500 C 85.117 115.700, 84.699 118.850, 84.492 120.500 C 84.285 122.150, 83.824 125.300, 83.467 127.500 C 83.110 129.700, 82.848 133.188, 82.886 135.250 C 82.923 137.313, 82.605 139, 82.178 139 C 81.751 139, 81.593 140.636, 81.826 142.636 C 82.117 145.132, 81.902 146.058, 81.140 145.587 C 80.379 145.116, 80.214 145.820, 80.616 147.829 C 80.953 149.515, 80.733 151.047, 80.097 151.440 C 79.477 151.823, 79.263 153.199, 79.608 154.574 C 79.946 155.923, 79.704 157.652, 79.069 158.417 C 78.414 159.206, 78.196 160.934, 78.565 162.404 C 78.977 164.046, 78.803 165, 78.093 165 C 77.474 165, 76.962 166.238, 76.955 167.750 C 76.931 172.958, 76.467 176.503, 75.641 177.807 C 75.185 178.526, 75.088 180.213, 75.425 181.557 C 75.809 183.087, 75.608 184, 74.888 184 C 74.133 184, 73.933 185.200, 74.306 187.500 C 74.642 189.569, 74.460 191, 73.862 191 C 73.305 191, 72.931 192.238, 73.031 193.750 C 73.130 195.263, 73.094 196.950, 72.950 197.500 C 72.806 198.050, 72.535 199.625, 72.348 201 C 71.706 205.722, 70.955 211.003, 70.464 214.249 C 70.194 216.037, 69.740 219.300, 69.456 221.500 C 69.172 223.700, 68.732 226.850, 68.478 228.500 C 67.540 234.601, 67.013 239.574, 67.022 242.250 C 67.028 243.762, 66.541 245, 65.941 245 C 65.340 245, 64.979 246.238, 65.138 247.751 C 65.296 249.263, 65.093 251.041, 64.685 251.701 C 64.277 252.361, 64.150 254.041, 64.402 255.434 C 64.655 256.828, 64.416 258.243, 63.872 258.579 C 63.328 258.915, 63.161 260.455, 63.500 262 C 63.866 263.667, 63.654 265.096, 62.978 265.514 C 62.335 265.911, 62.100 267.262, 62.438 268.609 C 62.797 270.039, 62.598 271, 61.944 271 C 61.342 271, 60.948 272.238, 61.068 273.750 C 61.189 275.262, 60.947 277.294, 60.531 278.265 C 60.115 279.236, 60.008 280.923, 60.293 282.014 C 60.579 283.105, 60.359 284.278, 59.805 284.620 C 59.252 284.963, 59.054 286.521, 59.367 288.083 C 59.679 289.647, 59.455 291.219, 58.867 291.583 C 58.278 291.946, 58.054 293.518, 58.367 295.083 C 58.679 296.644, 58.518 298.180, 58.010 298.494 C 57.502 298.808, 57.084 300.288, 57.083 301.783 C 57.082 303.277, 56.856 305.850, 56.581 307.500 C 52.983 329.125, 48.923 355.392, 48.273 361.250 C 47.791 365.593, 47.928 366, 49.873 366 C 51.043 366, 52 365.646, 52 365.213 C 52 364.780, 52.972 364.352, 54.160 364.263 C 55.348 364.173, 56.691 363.515, 57.145 362.800 C 57.598 362.085, 57.976 361.893, 57.985 362.372 C 57.993 362.852, 58.604 362.744, 59.342 362.131 C 60.080 361.519, 60.980 361.313, 61.342 361.675 C 61.704 362.037, 62 361.782, 62 361.108 C 62 360.434, 62.408 360.134, 62.907 360.443 C 64.097 361.178, 75 356.995, 75 355.802 C 75 355.296, 75.450 355.160, 76 355.500 C 76.550 355.840, 77 355.656, 77 355.090 C 77 354.525, 77.675 354.322, 78.500 354.638 C 79.325 354.955, 80 354.812, 80 354.320 C 80 353.828, 81.006 353.350, 82.235 353.257 C 83.465 353.165, 84.619 352.644, 84.800 352.101 C 84.981 351.557, 85.717 351.338, 86.436 351.614 C 87.154 351.889, 88.475 351.382, 89.371 350.486 C 90.267 349.590, 91 349.169, 91 349.551 C 91 349.933, 91.604 349.744, 92.342 349.131 C 93.080 348.519, 93.980 348.313, 94.342 348.675 C 94.704 349.037, 95 348.782, 95 348.108 C 95 347.434, 95.416 347.139, 95.925 347.454 C 97.206 348.246, 106.249 344.582, 105.316 343.649 C 104.901 343.234, 105.335 343.191, 106.280 343.554 C 107.226 343.917, 108 343.812, 108 343.320 C 108 342.828, 109.006 342.350, 110.235 342.257 C 111.465 342.165, 112.628 341.616, 112.821 341.038 C 113.013 340.460, 113.582 340.242, 114.085 340.553 C 114.588 340.864, 115 340.656, 115 340.090 C 115 339.525, 115.675 339.322, 116.500 339.638 C 117.325 339.955, 118 339.730, 118 339.138 C 118 338.547, 118.617 338.300, 119.371 338.589 C 120.125 338.878, 121.475 338.382, 122.371 337.486 C 123.267 336.590, 124 336.169, 124 336.551 C 124 336.933, 124.604 336.744, 125.342 336.131 C 126.080 335.519, 126.980 335.313, 127.342 335.675 C 127.704 336.037, 128 335.782, 128 335.108 C 128 334.434, 128.408 334.134, 128.906 334.442 C 129.404 334.750, 136.492 332.336, 144.656 329.077 C 162.396 321.997, 201.781 306.527, 204.250 305.670 C 207.375 304.586, 206.324 302.002, 202.750 301.982 C 200.963 301.972, 195.225 301.296, 190 300.479 C 184.775 299.662, 168.125 297.157, 153 294.912 C 137.875 292.667, 125.199 290.531, 124.830 290.165 C 124.462 289.799, 124.997 284.467, 126.019 278.315 C 127.041 272.163, 128.802 260.013, 129.932 251.315 C 131.063 242.617, 133.124 228.118, 134.512 219.096 C 135.901 210.074, 136.756 201.806, 136.411 200.721 C 136.028 199.512, 136.177 198.991, 136.798 199.375 C 137.450 199.778, 137.612 198.524, 137.253 195.847 C 136.826 192.663, 136.989 191.875, 137.955 192.472 C 138.877 193.042, 139.037 192.691, 138.552 191.163 C 138.187 190.015, 138.338 188.238, 138.886 187.214 C 139.894 185.330, 142.458 168.103, 143.561 155.796 C 144.153 149.196, 142.682 142, 140.740 142 C 140.268 142, 140.160 141.550, 140.500 141 C 140.840 140.450, 140.672 140, 140.126 140 C 139.581 140, 138.867 139.157, 138.540 138.126 C 138.213 137.095, 135.198 131.357, 131.840 125.376 C 128.482 119.394, 124.406 112.025, 122.781 109 C 121.156 105.975, 118.582 101.250, 117.060 98.500 C 115.539 95.750, 112.598 90.350, 110.525 86.500 C 108.452 82.650, 106.202 78.825, 105.524 78 C 104.847 77.175, 103.493 74.925, 102.516 73 C 101.539 71.075, 99.925 67.890, 98.929 65.922 C 95.267 58.682, 94.410 59.114, 92.954 68.938" stroke="none" fill="#fa7b04" fill-rule="evenodd"/><path d="M 1228.587 51.922 C 1214.061 58.626, 1209.475 61.188, 1208.816 62.968 C 1208.148 64.774, 1209.064 67.719, 1212.969 76.320 C 1215.724 82.389, 1217.871 87.401, 1217.739 87.457 C 1212.103 89.867, 1209.750 91.455, 1208.833 93.467 C 1207.563 96.254, 1207.357 95.705, 1222.523 130 C 1235.329 158.958, 1234.297 156, 1231.598 156 C 1229.711 156, 1228.742 154.742, 1226.206 149 C 1223.823 143.604, 1222.643 142, 1221.057 142 C 1218.839 142, 1218.330 140.070, 1220.085 138.315 C 1220.865 137.535, 1220.748 136.414, 1219.670 134.328 C 1218.844 132.732, 1214.586 123.118, 1210.208 112.963 C 1195.894 79.767, 1197.044 81.963, 1193.595 81.233 C 1191.893 80.872, 1190.050 80.691, 1189.500 80.829 C 1186.676 81.538, 1154.259 96.476, 1152.806 97.738 C 1150.193 100.006, 1150.193 103.002, 1152.806 109 C 1154.124 112.025, 1159.006 123.275, 1163.656 134 C 1168.306 144.725, 1172.358 154.063, 1172.662 154.750 C 1173.081 155.699, 1171.008 156, 1164.048 156 L 1154.882 156 1149.352 144.500 L 1143.822 133 1123.911 133 L 1104 133 1104 145.500 L 1104 158 1115.972 158 L 1127.943 158 1131.866 166.250 C 1134.023 170.787, 1139.164 181.700, 1143.290 190.500 C 1153.845 213.014, 1166.711 239.998, 1168.431 243.230 C 1169.835 245.868, 1169.581 246.501, 1160.808 262.230 C 1152.728 276.717, 1151.679 279.181, 1151.233 284.716 C 1150.806 290.013, 1151.119 291.723, 1153.352 296.287 C 1156.177 302.060, 1161.461 306.952, 1166.899 308.828 C 1169.378 309.683, 1190.160 310, 1243.649 310 L 1317 310 1317 297.500 L 1317 285 1248.059 285 C 1203.710 285, 1178.900 284.647, 1178.507 284.011 C 1178.171 283.468, 1180.282 278.743, 1183.198 273.513 L 1188.500 264.002 1233.624 264.001 C 1282.361 264, 1283.525 263.888, 1290.541 258.536 C 1292.289 257.203, 1295.068 253.949, 1296.715 251.306 C 1303.842 239.872, 1340.033 173.083, 1340.578 170.360 C 1341.373 166.383, 1338.888 160.628, 1335.381 158.328 C 1332.931 156.721, 1329.606 156.440, 1307.831 156 L 1283.068 155.500 1294.284 150.489 C 1308.007 144.359, 1307.988 144.414, 1301.421 129.877 C 1298.843 124.170, 1294.576 114.325, 1291.939 108 C 1284.938 91.209, 1274.437 68.231, 1272.939 66.426 C 1272.071 65.380, 1270.377 64.968, 1267.817 65.182 L 1263.992 65.500 1259.491 55.500 C 1254.830 45.144, 1253.059 42.932, 1249.559 43.097 C 1248.426 43.150, 1238.989 47.121, 1228.587 51.922 M 131.500 50.562 C 119.400 52.955, 106.016 55.433, 101.758 56.070 L 94.016 57.228 93.049 60.864 C 92.518 62.864, 91.851 67.650, 91.567 71.500 C 91.052 78.489, 91.054 78.486, 92.687 69.262 C 94.479 59.142, 95.283 58.712, 98.929 65.922 C 99.925 67.890, 101.539 71.075, 102.516 73 C 103.493 74.925, 104.847 77.175, 105.524 78 C 106.202 78.825, 108.452 82.650, 110.525 86.500 C 112.598 90.350, 115.539 95.750, 117.060 98.500 C 118.582 101.250, 121.156 105.975, 122.781 109 C 124.406 112.025, 128.482 119.394, 131.840 125.376 C 135.198 131.357, 138.213 137.095, 138.540 138.126 C 138.867 139.157, 139.581 140, 140.126 140 C 140.672 140, 140.840 140.450, 140.500 141 C 140.160 141.550, 140.268 142, 140.740 142 C 141.707 142, 144 147.795, 144 150.238 C 144 151.115, 144.417 151.983, 144.927 152.167 C 145.816 152.487, 154.121 166.825, 169.445 194.500 C 176.986 208.119, 201.877 252.671, 212.463 271.500 C 215.865 277.550, 221.138 287, 224.181 292.500 C 230.973 304.775, 237.412 316.256, 242.690 325.500 C 247.702 334.279, 251.859 341.783, 258.722 354.441 C 261.687 359.908, 265.605 366.883, 267.428 369.941 C 269.252 372.998, 273.339 380.225, 276.510 386 C 279.681 391.775, 284.551 400.648, 287.332 405.719 L 292.389 414.937 320.445 425.369 C 345.117 434.543, 378.858 446, 381.203 446 C 382.536 446, 379.911 440.634, 368.729 420.500 C 362.925 410.050, 355.703 397, 352.679 391.500 C 349.656 386, 346.079 379.700, 344.730 377.500 C 343.381 375.300, 340.575 370.350, 338.495 366.500 C 336.414 362.650, 331.679 354.100, 327.972 347.500 C 324.265 340.900, 317.279 328.300, 312.448 319.500 C 307.617 310.700, 300.536 297.875, 296.712 291 C 292.888 284.125, 288.652 276.475, 287.298 274 C 279.904 260.481, 267.239 237.659, 263.991 232 C 261.939 228.425, 256.764 219.200, 252.492 211.500 C 235.754 181.333, 229.472 170.147, 224.371 161.423 C 221.452 156.431, 218.712 151.481, 218.282 150.423 C 217.609 148.769, 209.701 134.436, 207.013 130 C 205.156 126.936, 169.185 62.199, 164.923 54.251 C 159.557 44.243, 162.060 44.519, 131.500 50.562 M 1245.876 49.882 L 1242.252 51.500 1245.571 58.500 C 1247.397 62.350, 1248.915 64.721, 1248.945 63.769 C 1249.002 61.979, 1253.120 60.338, 1254.859 61.413 C 1255.418 61.758, 1255.354 60.749, 1254.709 59.039 C 1253.703 56.376, 1253.416 56.218, 1251.964 57.532 C 1251.072 58.340, 1249.334 59, 1248.102 59 C 1246.350 59, 1245.931 58.509, 1246.180 56.750 C 1246.435 54.960, 1247.143 54.501, 1249.648 54.504 L 1252.797 54.507 1251.271 51.504 C 1250.432 49.852, 1249.690 48.447, 1249.623 48.382 C 1249.555 48.318, 1247.869 48.993, 1245.876 49.882 M 1234.649 60.758 C 1233.900 61.970, 1237.281 70.438, 1238.917 71.449 C 1240.733 72.571, 1240.058 68.784, 1237.607 64.099 C 1236.341 61.678, 1235.010 60.175, 1234.649 60.758 M 1255.448 64.651 C 1254.894 65.530, 1253.233 66.250, 1251.759 66.250 C 1249.133 66.250, 1249.108 66.308, 1250.553 69.102 L 1252.028 71.954 1255.514 70.292 C 1259.402 68.438, 1259.423 68.389, 1257.693 65.276 C 1256.606 63.318, 1256.336 63.243, 1255.448 64.651 M 1240.750 82.330 C 1226.037 89.005, 1214.002 94.924, 1214.003 95.483 C 1214.007 96.478, 1219.770 111.103, 1220.411 111.744 C 1220.713 112.047, 1275.858 87.475, 1276.646 86.687 C 1277.376 85.957, 1269.621 70.004, 1268.580 70.096 C 1267.986 70.149, 1255.463 75.654, 1240.750 82.330 M 1260.148 77.539 C 1257.469 80.945, 1257.425 83.425, 1260 86 C 1265.947 91.947, 1275.389 83.389, 1269.629 77.272 C 1268.993 76.597, 1267.083 75.767, 1265.384 75.427 C 1262.816 74.913, 1261.933 75.269, 1260.148 77.539 M 1245.557 84.223 C 1243.406 87.293, 1243.610 90.559, 1246.098 92.877 C 1249.973 96.487, 1257 93.280, 1257 87.902 C 1257 82.488, 1248.652 79.804, 1245.557 84.223 M 1222.750 98.123 C 1218.943 100.077, 1217.853 102.622, 1220.403 103.601 C 1222.030 104.226, 1230 100.417, 1230 99.015 C 1230 96.671, 1226.434 96.232, 1222.750 98.123 M 1256 114.121 C 1252.806 115.391, 1248.225 119.728, 1246.411 123.200 C 1244.388 127.072, 1244.657 134.666, 1246.985 139.434 C 1249.767 145.132, 1254.832 148.302, 1261.843 148.734 C 1268.541 149.147, 1274.073 146.500, 1277.670 141.162 C 1280.095 137.563, 1281.567 130.397, 1280.640 126.703 C 1278.177 116.890, 1265.420 110.376, 1256 114.121 M 1254.743 118.529 C 1250.103 121.682, 1247.834 125.958, 1247.646 131.902 C 1247.186 146.435, 1268.079 151.476, 1276.065 138.759 C 1278.791 134.418, 1278.311 126.649, 1275.032 122.045 C 1270.533 115.726, 1261.238 114.115, 1254.743 118.529 M 1168 119.980 C 1168 121.872, 1177.184 141.908, 1178.584 143.070 C 1179.688 143.986, 1180 143.943, 1180.002 142.872 C 1180.004 141.271, 1172.132 122.093, 1170.716 120.250 C 1169.571 118.760, 1168 118.604, 1168 119.980 M 1255.073 124.635 C 1252.485 127.925, 1252.110 136, 1254.545 136 C 1255.753 136, 1255.955 135.277, 1255.469 132.687 C 1254.951 129.927, 1255.339 128.849, 1257.792 126.222 C 1259.412 124.489, 1260.496 122.829, 1260.202 122.535 C 1259.004 121.338, 1257.031 122.145, 1255.073 124.635 M 1270.039 128.250 C 1270.400 132.711, 1269.959 134.132, 1267.423 136.668 C 1264.117 139.974, 1265.638 141.859, 1269.291 138.985 C 1272.095 136.780, 1273.638 131.584, 1272.528 128.087 C 1271.642 125.297, 1269.810 125.417, 1270.039 128.250 M 1198.640 148.805 C 1187.566 153.795, 1184.436 155.580, 1186.354 155.813 C 1187.879 155.998, 1194.134 153.802, 1201.713 150.420 C 1216.267 143.926, 1215.673 144.271, 1214.433 143.039 C 1213.858 142.467, 1207.796 144.680, 1198.640 148.805 M 339 246.499 L 339 329.121 380.250 328.808 L 421.500 328.495 429.328 325.728 C 448.593 318.920, 460.016 306.359, 463.065 288.630 C 466.934 266.141, 453.952 246.937, 431.480 241.908 L 426.019 240.686 431.498 238.459 C 443.298 233.664, 453.432 222.705, 456.012 211.951 C 457.677 205.008, 456.839 193.661, 454.225 187.765 C 450.046 178.339, 439.377 170.418, 425.329 166.312 C 420.373 164.864, 413.470 164.554, 379.250 164.243 L 339 163.877 339 246.499 M 503.094 245.264 C 486.920 289.944, 473.484 327.063, 473.237 327.750 C 472.886 328.724, 477.315 329, 493.300 329 L 513.814 329 517.473 317.250 C 519.485 310.788, 522.090 302.462, 523.262 298.750 L 525.394 292 554.142 292 L 582.890 292 588.729 310.250 L 594.568 328.500 615.277 328.770 L 635.985 329.041 632.681 319.770 C 630.864 314.672, 617.704 277.540, 603.438 237.256 L 577.500 164.013 555 164.020 L 532.500 164.028 503.094 245.264 M 647 178.988 L 647 193.977 686.054 194.238 L 725.108 194.500 683.054 251.214 L 641 307.928 641 318.464 L 641 329 708 329 L 775 329 775 314.011 L 775 299.022 733.686 298.761 L 692.372 298.500 733.165 242 L 773.957 185.500 773.979 174.750 L 774 164 710.500 164 L 647 164 647 178.988 M 811.094 245.264 C 794.920 289.944, 781.484 327.063, 781.237 327.750 C 780.886 328.724, 785.315 329, 801.300 329 L 821.814 329 825.473 317.250 C 827.485 310.788, 830.090 302.462, 831.262 298.750 L 833.394 292 862.142 292 L 890.890 292 896.729 310.250 L 902.568 328.500 923.277 328.770 L 943.985 329.041 940.681 319.770 C 938.864 314.672, 925.704 277.540, 911.438 237.256 L 885.500 164.013 863 164.020 L 840.500 164.028 811.094 245.264 M 964 246.429 L 964 329 983 329 L 1002 329 1002 297.500 L 1002 266 1006.750 266.006 C 1020.336 266.022, 1024.208 269.902, 1044.500 303.835 L 1059.500 328.918 1081.309 328.959 C 1098.474 328.991, 1102.968 328.734, 1102.415 327.750 C 1102.028 327.063, 1093.862 314.231, 1084.268 299.235 C 1066.324 271.187, 1059.731 262.706, 1052.097 257.853 C 1048.381 255.491, 1047.991 254.957, 1049.597 254.432 C 1056.118 252.299, 1065.200 246.758, 1070.228 241.847 C 1084.192 228.205, 1087.911 205.450, 1079.101 187.554 C 1075.470 180.178, 1070.400 175.240, 1062.217 171.109 C 1049.909 164.896, 1048.302 164.707, 1004.250 164.264 L 964 163.859 964 246.429 M 377 211.147 L 377 231.294 388.783 230.751 C 401.583 230.162, 406.556 228.719, 411.373 224.197 C 415.239 220.568, 417 216.104, 417 209.933 C 417 196.541, 407.549 191.083, 384.250 191.020 L 377 191 377 211.147 M 1002 214.988 L 1002 238.279 1013.250 237.706 C 1019.438 237.391, 1026.170 236.583, 1028.211 235.911 C 1042.885 231.077, 1049.048 210.565, 1039.114 199.620 C 1034.462 194.495, 1029.245 192.910, 1014.935 192.273 L 1002 191.698 1002 214.988 M 553 199.366 C 553 200.667, 548.555 215.630, 543.123 232.616 L 533.246 263.500 553.269 263.771 C 564.281 263.920, 573.501 263.832, 573.758 263.576 C 574.015 263.319, 570.067 249.922, 564.986 233.804 C 559.906 217.687, 555.521 202.813, 555.243 200.750 C 554.687 196.632, 553 195.591, 553 199.366 M 861 199.366 C 861 200.667, 856.555 215.630, 851.123 232.616 L 841.246 263.500 861.269 263.771 C 872.281 263.920, 881.501 263.832, 881.758 263.576 C 882.015 263.319, 878.067 249.922, 872.986 233.804 C 867.906 217.687, 863.521 202.813, 863.243 200.750 C 862.687 196.632, 861 195.591, 861 199.366 M 377 280.647 L 377 302.294 391.358 301.756 C 406.647 301.184, 412.517 299.622, 417.869 294.701 C 424.012 289.054, 425.695 278.524, 421.672 270.907 C 417.102 262.253, 407.730 259.062, 386.750 259.020 L 377 259 377 280.647 M 1171 320.939 C 1165.579 322.029, 1161.598 324.513, 1157.115 329.606 C 1148.429 339.475, 1149.084 352.730, 1158.743 362.503 C 1162.051 365.850, 1170.968 370, 1174.850 370 C 1182.821 370, 1193.187 363.356, 1197.252 355.643 C 1200.202 350.045, 1200.209 340.149, 1197.267 334.500 C 1192.253 324.874, 1180.811 318.967, 1171 320.939 M 1288.398 320.961 C 1282.735 322.286, 1276.663 326.439, 1273.082 331.437 C 1270.054 335.663, 1269.490 337.330, 1269.169 343.012 C 1268.497 354.905, 1274.929 364.743, 1285.795 368.446 C 1292.406 370.698, 1295.912 370.384, 1302.854 366.915 C 1315.748 360.472, 1320.752 346.392, 1314.409 334.399 C 1311.014 327.979, 1309.862 326.777, 1304.228 323.773 C 1298.902 320.934, 1292.999 319.885, 1288.398 320.961 M 340 349.073 C 340 350.223, 341.575 353.851, 343.500 357.135 C 345.425 360.420, 347 363.283, 347 363.498 C 347 363.713, 352.175 372.743, 358.500 383.565 C 364.825 394.386, 370 403.385, 370 403.562 C 370 403.740, 373.825 410.475, 378.500 418.529 C 383.175 426.583, 387 433.335, 387 433.533 C 387 433.731, 388.612 436.643, 390.582 440.004 C 392.851 443.876, 394.720 446.002, 395.683 445.808 C 396.519 445.638, 398.323 443.475, 399.691 441 C 401.060 438.525, 405.674 430.425, 409.944 423 C 414.214 415.575, 421.665 402.525, 426.500 394 C 431.335 385.475, 438.861 372.324, 443.224 364.775 C 447.587 357.226, 451.002 350.251, 450.814 349.275 C 450.493 347.604, 447.222 347.485, 395.236 347.242 L 340 346.983 340 349.073" stroke="none" fill="#0c4cc3" fill-rule="evenodd"/></svg>